# xmcd CD database file
#
# Track frame offsets:
#	150
#	31304
#	48680
#	76976
#	96808
#	123831
#	143637
#	170386
#
# Disc length: 2641 seconds
#
# Revision: 0
# Processed by: cddbd v1.5.2PL0 Copyright (c) Steve Scherf et al.
# Submitted via: CDex 1.51
#
DISCID=5f0a4f08
DTITLE=The Skull - The Endless Road Turns Dark
DYEAR=2018
DGENRE=Doom Metal
TTITLE0=The Endless Road Turns Dark
TTITLE1=Ravenswood
TTITLE2=Breathing Underwater
TTITLE3=The Longing
TTITLE4=From Myself Depart
TTITLE5=As The Sun Draws Near
TTITLE6=All That Remains (Is True)
TTITLE7=Thy Will Be Done
EXTD=YEAR: 2018
EXTT0=
EXTT1=
EXTT2=
EXTT3=
EXTT4=
EXTT5=
EXTT6=
EXTT7=
PLAYORDER=
